<svg xmlns="http://www.w3.org/2000/svg" viewBox="0 0 56 56" fill="none">
  <path d="M19.0497 15.7727H24.2173V33.0142C24.2173 34.608 23.8591 35.9924 23.1428 37.1676C22.4344 38.3428 21.4484 39.2483 20.1847 39.8842C18.9209 40.5201 17.4519 40.8381 15.7777 40.8381C14.2886 40.8381 12.9363 40.5765 11.7209 40.0533C10.5135 39.522 9.55563 38.7171 8.8473 37.6385C8.13897 36.5518 7.78883 35.1875 7.79688 33.5455H13.0007C13.0168 34.1974 13.1496 34.7569 13.3991 35.2237C13.6567 35.6825 14.0069 36.0367 14.4496 36.2862C14.9003 36.5277 15.4316 36.6484 16.0433 36.6484C16.6873 36.6484 17.2306 36.5116 17.6733 36.2379C18.1241 35.9562 18.4661 35.5457 18.6996 35.0064C18.933 34.4671 19.0497 33.803 19.0497 33.0142V15.7727ZM28.9398 40.5V15.7727H38.6955C40.5709 15.7727 42.1687 16.1309 43.4888 16.8473C44.8089 17.5556 45.815 18.5417 46.5072 19.8054C47.2075 21.0611 47.5577 22.5099 47.5577 24.152C47.5577 25.794 47.2035 27.2429 46.4952 28.4986C45.7868 29.7543 44.7606 30.7322 43.4163 31.4325C42.0802 32.1328 40.4623 32.483 38.5626 32.483H32.3446V28.2933H37.7175C38.7236 28.2933 39.5527 28.1203 40.2047 27.7741C40.8647 27.42 41.3557 26.933 41.6777 26.3132C42.0077 25.6854 42.1727 24.965 42.1727 24.152C42.1727 23.331 42.0077 22.6146 41.6777 22.0028C41.3557 21.383 40.8647 20.9041 40.2047 20.5661C39.5446 20.2199 38.7075 20.0469 37.6933 20.0469H34.1678V40.5H28.9398Z" />
  <style>
    path {
      fill: oklch(0% 0 0);
    }
    @media (prefers-color-scheme: dark) {
      path {
        fill: oklch(100% 0 0);
      }
    }
  </style>
</svg>